<?xml version="1.0"?>
<svg xmlns="http://www.w3.org/2000/svg" viewBox="0 0 64 64" width="512" height="512"><g id="flat"><rect x="18" y="41" width="2" height="16" style="fill:#7c4140"/><rect x="14" y="40" width="2" height="15" style="fill:#7c4140"/><rect x="10" y="37" width="2" height="17" style="fill:#7c4140"/><rect x="22" y="40" width="2" height="15" style="fill:#7c4140"/><rect x="26" y="37" width="2" height="17" style="fill:#7c4140"/><rect x="44" y="41" width="2" height="16" style="fill:#7c4140"/><rect x="40" y="40" width="2" height="15" style="fill:#7c4140"/><rect x="36" y="37" width="2" height="17" style="fill:#7c4140"/><rect x="48" y="40" width="2" height="15" style="fill:#7c4140"/><rect x="52" y="37" width="2" height="17" style="fill:#7c4140"/><path d="M19.573,16.181a1,1,0,0,0-1.146,0C18,16.479,8,23.565,8,31a11,11,0,0,0,22,0C30,23.565,20,16.479,19.573,16.181Z" style="fill:#ebb562"/><rect x="16" y="13" width="6" height="4" style="fill:#e97424"/><rect x="18" y="17" width="2" height="5" style="fill:#d3843d"/><rect x="11.379" y="35.5" width="4.243" height="2" transform="translate(-21.855 20.237) rotate(-45)" style="fill:#995f5b"/><rect x="23.5" y="34.379" width="2" height="4.243" transform="translate(-18.634 28.015) rotate(-45)" style="fill:#995f5b"/><rect x="12.5" y="23.379" width="2" height="4.243" transform="translate(-14.077 17.015) rotate(-45)" style="fill:#995f5b"/><rect x="22.379" y="24.5" width="4.243" height="2" transform="translate(-10.855 24.793) rotate(-45)" style="fill:#995f5b"/><path d="M45.573,16.181a1,1,0,0,0-1.146,0C44,16.479,34,23.565,34,31a11,11,0,0,0,22,0C56,23.565,46,16.479,45.573,16.181Z" style="fill:#ebb562"/><rect x="42" y="13" width="6" height="4" style="fill:#e97424"/><path d="M19,2a3.992,3.992,0,0,0-1,7.858V13h2V9.858A3.992,3.992,0,0,0,19,2Zm0,6a2,2,0,1,1,2-2A2,2,0,0,1,19,8Z" style="fill:#7c4140"/><path d="M49,6a4,4,0,1,0-5,3.858V13h2V9.858A4,4,0,0,0,49,6ZM45,8a2,2,0,1,1,2-2A2,2,0,0,1,45,8Z" style="fill:#7c4140"/><rect x="44" y="17" width="2" height="5" style="fill:#d3843d"/><rect x="37.379" y="35.5" width="4.243" height="2" transform="translate(-14.24 38.621) rotate(-45)" style="fill:#995f5b"/><rect x="49.5" y="34.379" width="2" height="4.243" transform="translate(-11.018 46.399) rotate(-45)" style="fill:#995f5b"/><rect x="38.5" y="23.379" width="2" height="4.243" transform="translate(-6.462 35.399) rotate(-45)" style="fill:#995f5b"/><rect x="48.379" y="24.5" width="4.243" height="2" transform="translate(-3.24 43.178) rotate(-45)" style="fill:#995f5b"/><circle cx="15" cy="57" r="3" style="fill:#e97424"/><circle cx="23" cy="57" r="3" style="fill:#e97424"/><circle cx="41" cy="57" r="3" style="fill:#e97424"/><circle cx="49" cy="57" r="3" style="fill:#e97424"/><circle cx="11" cy="55" r="3" style="fill:#dd3e46"/><circle cx="27" cy="55" r="3" style="fill:#dd3e46"/><circle cx="19" cy="59" r="3" style="fill:#dd3e46"/><circle cx="37" cy="55" r="3" style="fill:#dd3e46"/><circle cx="53" cy="55" r="3" style="fill:#dd3e46"/><circle cx="45" cy="59" r="3" style="fill:#dd3e46"/><path d="M19,25v6h6A6,6,0,0,0,19,25Z" style="fill:#7c4140"/><path d="M19,25v6H13A6,6,0,0,1,19,25Z" style="fill:#d3843d"/><path d="M19,37V31h6A6,6,0,0,1,19,37Z" style="fill:#d3843d"/><path d="M19,37V31H13A6,6,0,0,0,19,37Z" style="fill:#7c4140"/><path d="M45,25v6h6A6,6,0,0,0,45,25Z" style="fill:#7c4140"/><path d="M45,25v6H39A6,6,0,0,1,45,25Z" style="fill:#d3843d"/><path d="M45,37V31h6A6,6,0,0,1,45,37Z" style="fill:#d3843d"/><path d="M45,37V31H39A6,6,0,0,0,45,37Z" style="fill:#7c4140"/></g></svg>
