<svg height="512pt" viewBox="0 -12 512 512" width="512pt" xmlns="http://www.w3.org/2000/svg"><path d="m272.996094 75.71875h-9.269532v-27.515625c9.859376-3.25 16.996094-12.542969 16.996094-23.480469 0-13.632812-11.089844-24.722656-24.722656-24.722656s-24.722656 11.09375-24.722656 24.722656c0 10.9375 7.136718 20.230469 16.996094 23.480469v27.515625h-9.269532c-5.691406 0-10.304687 4.609375-10.304687 10.300781v25.753907h54.601562v-25.753907c0-5.691406-4.613281-10.300781-10.304687-10.300781zm-26.269532-50.996094c0-5.113281 4.160157-9.269531 9.273438-9.269531s9.273438 4.15625 9.273438 9.269531c0 5.113282-4.160157 9.273438-9.273438 9.273438s-9.273438-4.160156-9.273438-9.273438zm0 0" fill="#fcb670"/><path d="m256 220.175781c-4.269531 0-7.726562-3.460937-7.726562-7.726562v-74.921875c0-4.265625 3.460937-7.726563 7.726562-7.726563s7.726562 3.460938 7.726562 7.726563v74.921875c0 4.269531-3.457031 7.726562-7.726562 7.726562zm0 0" fill="#e7d7ff"/><path d="m267.085938 210.070312 33.160156 67.1875c1.800781 3.648438 5.28125 6.179688 9.308594 6.761719l74.144531 10.777344c10.140625 1.472656 14.191406 13.933594 6.851562 21.085937l-53.652343 52.296876c-2.914063 2.839843-4.242188 6.933593-3.554688 10.941406l12.667969 73.847656c1.730469 10.097656-8.871094 17.800781-17.9375 13.03125l-66.320313-34.863281c-3.601562-1.894531-7.902344-1.894531-11.503906 0l-66.320312 34.863281c-9.070313 4.769531-19.667969-2.933594-17.9375-13.03125l12.667968-73.847656c.6875-4.007813-.644531-8.101563-3.554687-10.941406l-53.65625-52.296876c-7.335938-7.152343-3.285157-19.613281 6.851562-21.085937l74.148438-10.777344c4.027343-.582031 7.507812-3.113281 9.308593-6.761719l33.160157-67.1875c4.53125-9.1875 17.632812-9.1875 22.167969 0zm0 0" fill="#ffe36c"/><path d="m63.894531 393.15625c-4.265625 0-7.726562-3.457031-7.726562-7.726562v-247.902344c0-4.265625 3.460937-7.726563 7.726562-7.726563s7.726563 3.460938 7.726563 7.726563v247.902344c0 4.269531-3.457032 7.726562-7.726563 7.726562zm0 0" fill="#e7d7ff"/><path d="m151.953125 220.226562c-4.269531 0-7.726563-3.460937-7.726563-7.726562v-74.972656c0-4.265625 3.457032-7.722656 7.726563-7.722656 4.265625 0 7.726563 3.457031 7.726563 7.722656v74.972656c0 4.265625-3.460938 7.726562-7.726563 7.726562zm0 0" fill="#e7d7ff"/><path d="m151.953125 185.6875c4.039063 20.285156 19.894531 36.136719 40.175781 40.179688-20.28125 4.039062-36.136718 19.894531-40.175781 40.175781-4.042969-20.28125-19.894531-36.136719-40.179687-40.175781 20.285156-4.042969 36.136718-19.894532 40.179687-40.179688zm0 0" fill="#9e6cff"/><path d="m76.746094 388.230469v-14.535157c0-2.84375-2.304688-5.148437-5.148438-5.148437h-15.804687c-2.84375 0-5.148438 2.304687-5.148438 5.148437v14.648438c-21.449219 5.820312-37.230469 25.417969-37.230469 48.710938 0 27.878906 22.601563 50.476562 50.480469 50.476562 27.878907 0 50.480469-22.597656 50.480469-50.476562 0-23.4375-15.972656-43.136719-37.628906-48.824219zm0 0" fill="#f78d8d"/><path d="m448.105469 393.15625c-4.269531 0-7.726563-3.457031-7.726563-7.726562v-247.902344c0-4.265625 3.460938-7.726563 7.726563-7.726563s7.726562 3.460938 7.726562 7.726563v247.902344c0 4.269531-3.460937 7.726562-7.726562 7.726562zm0 0" fill="#e7d7ff"/><path d="m360.046875 221.257812c-4.265625 0-7.726563-3.460937-7.726563-7.726562v-76.003906c0-4.265625 3.460938-7.722656 7.726563-7.722656 4.269531 0 7.726563 3.457031 7.726563 7.722656v76.003906c0 4.265625-3.457032 7.726562-7.726563 7.726562zm0 0" fill="#e7d7ff"/><path d="m461.355469 388.34375v-14.644531c0-2.847657-2.304688-5.152344-5.148438-5.152344h-15.804687c-2.84375 0-5.148438 2.304687-5.148438 5.152344v14.53125c-21.652344 5.6875-37.628906 25.386719-37.628906 48.824219 0 27.878906 22.601562 50.476562 50.480469 50.476562 27.878906 0 50.480469-22.597656 50.480469-50.476562-.003907-23.292969-15.78125-42.886719-37.230469-48.710938zm0 0" fill="#f78d8d"/><path d="m74.957031 450.863281-11.0625-3.242187-11.058593 3.242187c-2.34375.6875-4.519532-1.492187-3.835938-3.835937l3.238281-11.058594-3.238281-11.0625c-.6875-2.34375 1.492188-4.519531 3.835938-3.835938l11.058593 3.242188 11.0625-3.242188c2.34375-.683593 4.519531 1.492188 3.832031 3.835938l-3.238281 11.0625 3.238281 11.058594c.6875 2.34375-1.488281 4.523437-3.832031 3.835937zm0 0" fill="#fee"/><path d="m459.214844 450.71875-11.0625-3.238281-11.058594 3.238281c-2.347656.6875-4.523438-1.492188-3.835938-3.835938l3.238282-11.058593-3.238282-11.0625c-.6875-2.34375 1.488282-4.519531 3.835938-3.832031l11.058594 3.238281 11.0625-3.238281c2.34375-.6875 4.519531 1.488281 3.832031 3.832031l-3.238281 11.0625 3.238281 11.058593c.6875 2.34375-1.488281 4.523438-3.832031 3.835938zm0 0" fill="#fee"/><path d="m360.046875 185.6875c4.042969 20.285156 19.894531 36.136719 40.179687 40.179688-20.285156 4.039062-36.136718 19.894531-40.179687 40.175781-4.039063-20.28125-19.894531-36.136719-40.175781-40.175781 20.28125-4.042969 36.136718-19.894532 40.175781-40.179688zm0 0" fill="#9e6cff"/><path d="m493.972656 137.527344h-475.945312c-9.957032 0-18.027344-8.070313-18.027344-18.027344s8.070312-18.027344 18.027344-18.027344h475.945312c9.957032 0 18.027344 8.070313 18.027344 18.027344s-8.070312 18.027344-18.027344 18.027344zm0 0" fill="#fcd09f"/><path d="m114.371094 437.0625c0 27.878906-22.59375 50.480469-50.480469 50.480469-5.386719 0-10.578125-.84375-15.453125-2.410157 20.328125-6.53125 35.027344-25.578124 35.027344-48.070312 0-22.488281-14.699219-41.546875-35.027344-48.054688.734375-.238281 1.464844-.453124 2.207031-.660156v-14.640625c0-2.851562 2.304688-5.148437 5.148438-5.148437h15.804687c2.84375 0 5.148438 2.296875 5.148438 5.148437v14.527344c21.65625 5.6875 37.625 25.394531 37.625 48.828125zm0 0" fill="#f96767"/><path d="m498.585938 437.0625c0 27.878906-22.601563 50.480469-50.476563 50.480469-5.398437 0-10.589844-.84375-15.453125-2.410157 20.3125-6.53125 35.023438-25.578124 35.023438-48.070312 0-22.488281-14.710938-41.535156-35.023438-48.054688.855469-.289062 1.71875-.546874 2.59375-.773437v-14.527344c0-2.855469 2.308594-5.152343 5.152344-5.152343h15.800781c2.84375 0 5.152344 2.296874 5.152344 5.152343v14.640625c21.449219 5.820313 37.230469 25.421875 37.230469 48.714844zm0 0" fill="#f96767"/><path d="m512 119.5v.011719c0 9.949219-8.078125 18.015625-18.027344 18.015625h-30.90625c9.953125 0 18.027344-8.066406 18.027344-18.015625v-.011719c0-9.953125-8.074219-18.027344-18.027344-18.027344h30.90625c9.949219 0 18.027344 8.078125 18.027344 18.027344zm0 0" fill="#f4b06c"/></svg>