<?xml version="1.0" encoding="iso-8859-1"?>
<!-- Generator: Adobe Illustrator 19.0.0, SVG Export Plug-In . SVG Version: 6.00 Build 0)  -->
<svg version="1.1" id="Capa_1" xmlns="http://www.w3.org/2000/svg" xmlns:xlink="http://www.w3.org/1999/xlink" x="0px" y="0px"
	 viewBox="0 0 512 512" style="enable-background:new 0 0 512 512;" xml:space="preserve">
<path style="fill:#985335;" d="M341.357,145.08L341.357,145.08c0-47.124-38.2-85.324-85.324-85.324s-85.324,38.2-85.324,85.324l0,0
	H58.264v213.308h394.012V145.08H341.357z"/>
<g>
	<rect x="423.143" y="145.082" style="fill:#87462A;" width="29.13" height="213.312"/>
	<rect x="58.259" y="145.082" style="fill:#87462A;" width="29.13" height="213.312"/>
</g>
<g>
	<path style="fill:#FFD151;" d="M62.141,128.016H40.375c-3.414,0-6.18,2.767-6.18,6.18V332.79h34.126V134.196
		C68.321,130.783,65.554,128.016,62.141,128.016z"/>
	<path style="fill:#FFD151;" d="M471.692,128.016h-21.766c-3.414,0-6.18,2.767-6.18,6.18V332.79h34.126V134.196
		C477.872,130.783,475.106,128.016,471.692,128.016z"/>
</g>
<g>
	<path style="fill:#F79B4A;" d="M471.692,128.016h-20.601c3.414,0,6.18,2.767,6.18,6.18V332.79h20.601V134.196
		C477.872,130.783,475.106,128.016,471.692,128.016z"/>
	<path style="fill:#F79B4A;" d="M62.141,128.016H41.54c3.414,0,6.18,2.767,6.18,6.18V332.79h20.601V134.196
		C68.321,130.783,65.554,128.016,62.141,128.016z"/>
</g>
<path style="fill:#B6E3EE;" d="M392.551,272.48H273.098v-70.027c0-3.414,2.767-6.18,6.18-6.18H386.37c3.414,0,6.18,2.767,6.18,6.18
	V272.48z"/>
<path style="fill:#96D2E0;" d="M386.37,196.273H279.279c-0.214,0-0.425,0.011-0.633,0.032h87.094c3.414,0,6.18,2.767,6.18,6.18
	v69.995h20.632v-70.027C392.551,199.041,389.783,196.273,386.37,196.273z"/>
<g>
	<path style="fill:#00BCE7;" d="M273.098,214.146v15.451h0.001h17.066c4.266,0,7.725-3.459,7.725-7.725s-3.459-7.725-7.725-7.725
		H273.1C273.099,214.146,273.098,214.146,273.098,214.146z"/>
	<path style="fill:#00BCE7;" d="M392.551,214.146h-17.064c-4.267,0-7.725,3.459-7.725,7.725s3.458,7.725,7.725,7.725h17.064V214.146
		z"/>
</g>
<path style="fill:#B6E3EE;" d="M238.969,272.48H119.516v-70.027c0-3.414,2.767-6.18,6.18-6.18h107.092c3.414,0,6.18,2.767,6.18,6.18
	V272.48z"/>
<path style="fill:#96D2E0;" d="M232.788,196.273H125.697c-0.214,0-0.425,0.011-0.633,0.032h87.094c3.414,0,6.18,2.767,6.18,6.18
	v69.995h20.632v-70.027C238.969,199.041,236.201,196.273,232.788,196.273z"/>
<g>
	<path style="fill:#00BCE7;" d="M119.516,214.146v15.451c0.001,0,0.001,0,0.001,0h17.065c4.267,0,7.725-3.459,7.725-7.725
		s-3.458-7.725-7.725-7.725h-17.065C119.517,214.146,119.517,214.146,119.516,214.146z"/>
	<path style="fill:#00BCE7;" d="M238.969,214.146h-17.064c-4.267,0-7.725,3.459-7.725,7.725s3.458,7.725,7.725,7.725h17.064V214.146
		z"/>
</g>
<circle style="fill:#FFD151;" cx="256.039" cy="145.082" r="17.066"/>
<path style="fill:#00BCE7;" d="M443.745,338.404v-39.742c0-18.849-15.281-34.13-34.13-34.13H102.454
	c-18.849,0-34.13,15.281-34.13,34.13v39.742L443.745,338.404L443.745,338.404z"/>
<path style="fill:#0094D4;" d="M409.615,264.532h-20.601c18.849,0,34.13,15.281,34.13,34.13v39.742h20.601v-39.742
	C443.745,279.813,428.464,264.532,409.615,264.532z"/>
<rect x="25.303" y="332.787" style="fill:#985335;" width="461.461" height="93.858"/>
<g>
	<path style="fill:#693621;" d="M119.516,408.772H59.791c-4.267,0-7.725-3.459-7.725-7.725v-42.658c0-4.266,3.458-7.725,7.725-7.725
		h59.725c4.266,0,7.725,3.459,7.725,7.725v42.658C127.242,405.313,123.783,408.772,119.516,408.772z M67.516,393.321h44.274v-27.208
		H67.516V393.321z"/>
	<path style="fill:#693621;" d="M366.953,408.772H145.115c-4.267,0-7.725-3.459-7.725-7.725v-42.658
		c0-4.266,3.458-7.725,7.725-7.725h221.838c4.267,0,7.725,3.459,7.725,7.725v42.658C374.678,405.313,371.22,408.772,366.953,408.772
		z M152.84,393.321h206.387v-27.208H152.84V393.321z"/>
	<path style="fill:#693621;" d="M452.277,408.772h-59.726c-4.267,0-7.725-3.459-7.725-7.725v-42.658
		c0-4.266,3.458-7.725,7.725-7.725h59.726c4.267,0,7.725,3.459,7.725,7.725v42.658C460.002,405.313,456.544,408.772,452.277,408.772
		z M400.276,393.321h44.276v-27.208h-44.276V393.321z"/>
</g>
<path style="fill:#FFD151;" d="M505.82,332.79h-21.766c-3.414,0-6.18,2.767-6.18,6.18v107.093c0,3.414,2.767,6.18,6.18,6.18h21.766
	c3.414,0,6.18-2.767,6.18-6.18V338.971C512,335.557,509.233,332.79,505.82,332.79z"/>
<path style="fill:#F79B4A;" d="M505.82,332.79h-20.601c3.414,0,6.18,2.767,6.18,6.18v113.273h14.421c3.414,0,6.18-2.767,6.18-6.18
	V338.971C512,335.557,509.233,332.79,505.82,332.79z"/>
<path style="fill:#FFD151;" d="M27.946,332.79H6.18c-3.414,0-6.18,2.767-6.18,6.18v107.093c0,3.414,2.767,6.18,6.18,6.18h21.766
	c3.414,0,6.18-2.767,6.18-6.18V338.971C34.126,335.557,31.36,332.79,27.946,332.79z"/>
<path style="fill:#F79B4A;" d="M27.946,332.79H7.345c3.414,0,6.18,2.767,6.18,6.18v113.273h14.421c3.414,0,6.18-2.767,6.18-6.18
	V338.971C34.126,335.557,31.36,332.79,27.946,332.79z"/>
<g>
</g>
<g>
</g>
<g>
</g>
<g>
</g>
<g>
</g>
<g>
</g>
<g>
</g>
<g>
</g>
<g>
</g>
<g>
</g>
<g>
</g>
<g>
</g>
<g>
</g>
<g>
</g>
<g>
</g>
</svg>
